HIERARCHY
ROOT root     
{
	OFFSET 0.0000 0.0000 0.0000
	CHANNELS 6 Xposition Yposition Zposition Zrotation Yrotation Xrotation
	JOINT pelvis   
	{
		OFFSET 0.0000 0.0000 0.0000
		CHANNELS 3 Zrotation Yrotation Xrotation
		JOINT thorax   
		{
			OFFSET 0.0000 23.0750 -5.0000
			CHANNELS 3 Zrotation Yrotation Xrotation
			JOINT rclavicle
			{
				OFFSET 0.0000 28.0009 0.0000
				CHANNELS 3 Zrotation Yrotation Xrotation
				JOINT rhumerus 
				{
					OFFSET -18.5725 5.5939 0.0000
					CHANNELS 3 Zrotation Yrotation Xrotation
					JOINT rradius  
					{
						OFFSET -24.8459 0.0000 0.0000
						CHANNELS 3 Zrotation Yrotation Xrotation
						JOINT rhand    
						{
							OFFSET -24.5477 0.0000 0.0000
							CHANNELS 3 Zrotation Yrotation Xrotation
							End Site
							{
								OFFSET -8.1826 0.0000 0.0000
							}
						}
					}
				}
			}
			JOINT lclavicle
			{
				OFFSET 0.0000 28.0009 0.0000
				CHANNELS 3 Zrotation Yrotation Xrotation
				JOINT lhumerus 
				{
					OFFSET 18.5725 5.5939 0.0000
					CHANNELS 3 Zrotation Yrotation Xrotation
					JOINT lradius  
					{
						OFFSET 24.8459 0.0000 0.0000
						CHANNELS 3 Zrotation Yrotation Xrotation
						JOINT lhand    
						{
							OFFSET 24.5477 0.0000 0.0000
							CHANNELS 3 Zrotation Yrotation Xrotation
							End Site
							{
								OFFSET 8.1826 0.0000 0.0000
							}
						}
					}
				}
			}
			JOINT head     
			{
				OFFSET 0.0000 35.2030 0.0000
				CHANNELS 3 Zrotation Yrotation Xrotation
				End Site
				{
					OFFSET 0.0000 11.7343 0.0000
				}
			}
		}
		JOINT rfemur   
		{
			OFFSET -8.2817 0.0000 0.0000
			CHANNELS 3 Zrotation Yrotation Xrotation
			JOINT rtibia   
			{
				OFFSET 0.0000 -43.3627 0.0000
				CHANNELS 3 Zrotation Yrotation Xrotation
				JOINT rfoot    
				{
					OFFSET 0.0000 -38.2947 0.0000
					CHANNELS 3 Zrotation Yrotation Xrotation
					JOINT rtoes    
					{
						OFFSET 0.0000 0.0000 16.6054
						CHANNELS 3 Zrotation Yrotation Xrotation
						End Site
						{
							OFFSET 0.0000 0.0000 5.5351
						}
					}
				}
			}
		}
		JOINT lfemur   
		{
			OFFSET 8.2817 0.0000 0.0000
			CHANNELS 3 Zrotation Yrotation Xrotation
			JOINT ltibia   
			{
				OFFSET 0.0000 -43.3627 0.0000
				CHANNELS 3 Zrotation Yrotation Xrotation
				JOINT lfoot    
				{
					OFFSET 0.0000 -38.2947 0.0000
					CHANNELS 3 Zrotation Yrotation Xrotation
					JOINT ltoes    
					{
						OFFSET 0.0000 0.0000 16.6054
						CHANNELS 3 Zrotation Yrotation Xrotation
						End Site
						{
							OFFSET 0.0000 0.0000 5.5351
						}
					}
				}
			}
		}
	}
}
MOTION
Frames: 15
Frame Time: .0333333
-59.942 85.139 -14.081 71.1591 89.0509 91.9965 0 -0 0 -6.20909 -5.22186 -4.93301 26.8388 -11.0323 -6.76547e-05 39.547 2.73391 17.4486 -0 82.0111 -0 1.35042 6.17884 0.0729009 -24.676 15.9671 5.23854e-05 -41.6076 14.3076 10.6826 -1.18366e-06 -78.6175 9.69152e-07 4.23209 3.68705 0.136298 14.3165 -1.36063 -7.35707 0.261606 -5.25513 -8.64602 -0 -0 38.2667 -9.30812e-05 17.5741 25.0764 7.64534 6.05502e-06 -76.2121 -2.69219 4.8754 -36.2013 -0 -0 28.1827 -7.01722e-09 5.3451 0.0514001 0.00479998 7.20964e-09 -24.295 
-58.691 84.757 -14.135 63.5795 88.6029 84.1388 0 -0 0 -6.79685 -5.53799 -4.65096 26.9473 -11.1373 3.33552e-05 39.7524 2.69386 16.9419 -2.37643e-06 82.2173 -2.07385e-06 0.921684 6.11091 0.0491993 -24.811 15.8148 -9.66378e-05 -42.0657 13.8627 10.4673 -1.12455e-06 -77.956 9.09924e-07 5.20902 3.8571 0.175501 14.6767 -1.77768 -7.56582 -0.450707 -5.99639 -9.75233 -0 -0 41.8849 -6.53652e-05 17.3125 25.7922 7.72382 7.37695e-05 -76.2387 -2.95158 4.62976 -36.0213 -0 -0 30.3801 3.2249e-07 5.84537 -1.11621 -0.1143 -4.40501e-07 -23.8594 
-57.449 84.428 -14.188 58.1853 88.0642 78.4955 0 -0 0 -7.3479 -5.80944 -4.41064 27.004 -11.2263 8.1802e-06 40.0077 2.65169 16.519 -2.41385e-06 82.348 -2.11131e-06 0.492295 5.98862 0.0257996 -24.9651 15.6512 -7.77533e-05 -42.4992 13.3 10.3612 8.47582e-07 -77.1692 -1.06237e-06 6.29554 4.0167 0.221001 14.9158 -2.14321 -7.69229 -1.15301 -6.59844 -10.9767 -0 -0 45.4508 0.000142105 16.467 26.4835 7.50897 -3.68171e-05 -75.5191 -3.29056 4.54132 -35.6448 -0 -0 32.1328 -2.0167e-07 6.38886 -2.29529 -0.256907 -2.64603e-06 -23.8572 
-56.216 84.162 -14.233 53.6508 87.499 73.7421 0 -0 0 -7.82841 -6.03836 -4.22508 27.0113 -11.2965 -5.01347e-05 40.2795 2.61126 16.2008 -0 82.4057 -0 0.0799987 5.80749 0.00409989 -25.1415 15.4836 0.000151584 -42.9135 12.6449 10.3581 -1.41669e-06 -76.2893 1.11265e-06 7.45005 4.14988 0.270291 15.0228 -2.44818 -7.7257 -1.80833 -7.0478 -12.3103 -0 -0 48.9004 0.000187348 15.024 27.0435 6.95725 4.00119e-05 -74.117 -3.67796 4.61092 -35.0838 -0 -0 33.4103 3.75764e-06 6.95143 -3.46589 -0.422301 -7.79429e-07 -24.2927 
-54.989 83.964 -14.269 49.4792 86.8855 69.3874 0 -0 0 -8.21506 -6.22803 -4.09468 26.9737 -11.3471 -4.78911e-05 40.5304 2.58064 16.0062 -1.50208e-06 82.3943 -1.71599e-06 -0.295695 5.56629 -0.0143997 -25.3358 15.3295 6.42574e-05 -43.3177 11.9127 10.4535 1.03297e-06 -75.3674 -1.3373e-06 8.62245 4.24121 0.319903 14.9956 -2.68526 -7.66461 -2.39215 -7.34461 -13.7373 -0 -0 52.1785 -5.34098e-05 13.0237 27.3667 6.06921 4.99642e-05 -72.149 -4.08479 4.82563 -34.3407 -0 -0 34.2094 -4.47053e-06 7.51097 -4.59625 -0.60529 -3.35409e-07 -25.1092 
-53.766 83.836 -14.29 45.3935 86.2592 65.1476 0 -0 0 -8.47479 -6.38421 -4.01582 26.8937 -11.3747 -8.78987e-06 40.7292 2.56334 15.9455 -4.28276e-06 82.3334 -4.43935e-06 -0.611005 5.26554 -0.0281005 -25.5477 15.1901 -1.68769e-05 -43.7215 11.1398 10.6324 1.36208e-06 -74.448 -1.79292e-06 9.75482 4.27945 0.365304 14.8347 -2.8503 -7.51655 -2.87081 -7.4892 -15.2377 -0 -0 55.2304 -1.48985e-05 10.543 27.367 4.89012 -2.02942e-05 -69.7711 -4.47196 5.17074 -33.4305 -0 -0 34.5603 9.60549e-09 8.03716 -5.64537 -0.795809 6.36648e-06 -26.2044 
-52.543 83.775 -14.291 41.264 85.6536 60.8853 0 -0 0 -8.57246 -6.5151 -3.98344 26.7731 -11.3786 -4.22153e-05 40.8468 2.56565 16.0239 -1.68251e-06 82.2349 -1.46859e-06 -0.842994 4.90774 -0.0360998 -25.7782 15.0548 -4.78936e-05 -44.1287 10.3803 10.8675 -1.21057e-06 -73.6009 9.05603e-07 10.7885 4.25668 0.402099 14.5415 -2.94221 -7.29454 -3.20839 -7.48537 -16.7916 -0 -0 58.0093 2.93302e-05 7.68833 26.9849 3.5053 -2.85333e-07 -67.109 -4.79668 5.62663 -32.376 -0 -0 34.5145 -1.11488e-05 8.49953 -6.56649 -0.979092 -2.98855e-06 -27.4611 
-51.319 83.779 -14.272 37.1334 85.0587 56.6386 0 -0 0 -8.50893 -6.63059 -3.98189 26.6163 -11.3612 3.91561e-05 40.8667 2.59356 16.2397 -0 82.1138 -0 -0.969016 4.49927 -0.0381007 -26.009 14.935 -4.5488e-05 -44.5542 9.64788 11.1553 8.60322e-07 -72.8601 -1.1656e-06 11.6735 4.16959 0.426419 14.1331 -2.96518 -7.02113 -3.40092 -7.35117 -18.3746 -0 -0 60.4827 -9.74482e-06 4.60207 26.1859 2.03432 1.38879e-05 -64.2859 -5.03921 6.15315 -31.1896 -0 -0 34.126 2.55395e-07 8.88799 -7.30594 -1.1393 -4.7206e-06 -28.7649 
-50.092 83.839 -14.228 33.0387 84.4817 52.4383 0 -0 0 -8.2825 -6.74403 -3.99903 26.4299 -11.3252 -5.03472e-05 40.7789 2.64841 16.583 -0 81.9779 -0 -0.969004 4.04876 -0.0342998 -26.2267 14.8264 -7.99716e-05 -45.0044 8.97165 11.4825 -1.13255e-06 -72.2795 8.27052e-07 12.3665 4.01934 0.435614 13.6284 -2.9267 -6.72172 -3.44027 -7.10422 -19.9665 -0 -0 62.6174 1.03924e-05 1.43215 24.97 0.604701 -2.28794e-06 -61.3236 -5.17829 6.71146 -29.8931 -0 -0 33.4655 3.46212e-06 9.19532 -7.81778 -1.26142 -7.70284e-06 -30.0313 
-48.861 83.949 -14.159 29.0667 83.9336 48.3714 0 -0 0 -7.89969 -6.87123 -4.0268 26.217 -11.2808 4.96403e-05 40.5791 2.73783 17.046 -2.27509e-06 81.8448 -1.97244e-06 -0.832003 3.56703 -0.0259004 -26.4127 14.7159 0.00020212 -45.4778 8.39023 11.8344 8.06261e-07 -71.8911 -1.11193e-06 12.8377 3.81208 0.428992 13.0481 -2.83799 -6.42102 -3.32409 -6.76399 -21.5456 -0 -0 64.3898 5.55733e-06 -1.67669 23.376 -0.665412 2.2162e-06 -58.3122 -5.20109 7.26129 -28.5166 -0 -0 32.6091 -2.82698e-06 9.42262 -8.06751 -1.33414 1.56115e-05 -31.2163 
-47.626 84.1 -14.065 25.3395 83.4117 44.5567 0 -0 0 -7.39004 -7.02823 -4.05182 25.9879 -11.2285 6.49445e-06 40.2801 2.85063 17.6022 -2.24768e-06 81.7406 -1.94503e-06 -0.546905 3.06806 -0.0145999 -26.5476 14.6131 4.78641e-05 -45.9766 7.89511 12.2218 -1.10242e-06 -71.71 7.96682e-07 13.0765 3.55873 0.408011 12.4183 -2.71232 -6.14483 -3.07295 -6.35868 -23.0896 -0 -0 65.785 -9.07772e-06 -4.57923 21.4481 -1.67753 1.06799e-06 -55.1274 -5.11451 7.76178 -27.08 -0 -0 31.6212 7.49863e-06 9.58239 -8.03716 -1.35221 6.39937e-06 -32.3071 
-46.389 84.284 -13.947 21.945 82.9279 41.0833 0 -0 0 -6.78159 -7.23038 -4.07021 25.7516 -11.1816 4.25484e-05 39.8892 2.99003 18.2353 -3.93414e-06 81.6688 -4.0908e-06 -0.118898 2.56753 -0.00269998 -26.6169 14.5012 0.000192039 -46.4872 7.50608 12.6383 0 -71.7433 0 13.0805 3.27443 0.37551 11.7607 -2.56443 -5.91352 -2.70511 -5.91206 -24.5825 -0 -0 66.7932 1.09498e-05 -7.16045 19.2835 -2.37576 -4.43699e-07 -51.8621 -4.92958 8.18412 -25.6132 -0 -0 30.5715 4.8688e-06 9.68543 -7.73018 -1.31514 -2.14337e-05 -33.3169 
-45.149 84.493 -13.807 18.9703 82.5055 38.0327 0 -0 0 -6.11286 -7.48975 -4.07737 25.5182 -11.1447 -5.19204e-05 39.4248 3.14627 18.917 -0 81.6287 -0 0.4427 2.08212 0.00800003 -26.608 14.3835 -7.04132e-05 -46.9931 7.21353 13.0946 8.11533e-07 -71.9898 -1.11716e-06 12.8664 2.97679 0.335692 11.0964 -2.40822 -5.74327 -2.25121 -5.45127 -26.0102 -0 -0 67.4151 1.85928e-05 -9.32649 16.9801 -2.74603 -6.31835e-06 -48.4669 -4.66956 8.51116 -24.1399 -0 -0 29.505 5.48553e-06 9.74356 -7.1674 -1.22738 7.68348e-06 -34.2811 
-43.906 84.721 -13.649 16.48 82.134 35.4722 0 -0 0 -5.42119 -7.81394 -4.0719 25.297 -11.1237 4.13768e-05 38.9064 3.30734 19.6252 -0 81.6412 -0 1.1192 1.62844 0.0159004 -26.518 14.255 5.54465e-05 -47.4738 7.00674 13.6014 -1.14111e-06 -72.4305 8.35657e-07 12.4624 2.68522 0.293208 10.4387 -2.25634 -5.64474 -1.74287 -5.00043 -27.3577 -0 -0 67.6623 1.3943e-05 -11.0186 14.6527 -2.81985 3.26785e-05 -44.9791 -4.36201 8.74103 -22.6775 -0 -0 28.462 -2.79429e-06 9.76325 -6.38495 -1.09619 -3.08962e-06 -35.2493 
-42.66 84.961 -13.474 14.5215 81.825 33.4483 0 -0 0 -4.73989 -8.2037 -4.05549 25.0965 -11.1222 9.10359e-05 38.3521 3.4623 20.334 -3.95531e-06 81.7131 -4.11196e-06 1.88485 1.22141 0.0200995 -26.3491 14.1172 -5.54646e-05 -47.899 6.86854 14.1674 8.7135e-07 -73.0487 -1.17653e-06 11.9011 2.41802 0.252094 9.79473 -2.11876 -5.622 -1.20946 -4.57884 -28.6205 -0 -0 67.5495 -2.07407e-05 -12.2162 12.4201 -2.66593 -6.92763e-06 -41.5112 -4.03471 8.88547 -21.2416 -0 -0 27.4607 5.84739e-06 9.746 -5.42643 -0.930611 -8.46717e-07 -36.2853 
